.
 
http://www.scenetime.com    -   SceneTime [ We been having it ] !!!


How come you press harder on a remote control when you know the battery is dead? so you better seed to get speed ;)

        Seed back for speed


...................................NFO:.................................................








































          
          
              
              
                    
                    
                    
                    

Ferocious.Planet.2010.DVDRiP.XviD.AC3-SiC

Poster:
[img]http://leetleech.org/images/22691752087819232854.jpg[/img]

IMDB Link:
http://www.imdb.com/title/tt1637728/

Description:
A groundbreaking device is designed to glimpse alternate universes. But when the machine malfunctions and transports a group of observers into a nightmarish dimension of alien terrors, the travelers must use ingenuity to survive. 

General
Complete name                    : Ferocious.Planet.2010.DVDRiP.XviD.AC3-SiC.avi
Format                           : AVI
Format/Info                      : Audio Video Interleave
File size                        : 1.33 GiB
Duration                         : 1h 28mn
Overall bit rate                 : 2 156 Kbps

Video
ID                               : 0
Format                           : MPEG-4 Visual
Format profile                   : Advanced Simple@L5
Format settings, BVOP            : 1
Format settings, QPel            : No
Format settings, GMC             : No warppoints
Format settings, Matrix          : Default (H.263)
Codec ID                         : XVID
Codec ID/Hint                    : XviD
Duration                         : 1h 28mn
Bit rate                         : 1 699 Kbps
Width                            : 720 pixels
Height                           : 384 pixels
Display aspect ratio             : 1.875
Frame rate                       : 29.970 fps
Color space                      : YUV
Chroma subsampling               : 4:2:0
Bit depth                        : 8 bits
Scan type                        : Progressive
Compression mode                 : Lossy
Bits/(Pixel*Frame)               : 0.205
Stream size                      : 1.05 GiB (79%)
Writing library                  : XviD 1.2.1 (UTC 2008-12-04)

Audio
ID                               : 1
Format                           : AC-3
Format/Info                      : Audio Coding 3
Mode extension                   : CM (complete main)
Codec ID                         : 2000
Duration                         : 1h 28mn
Bit rate mode                    : Constant
Bit rate                         : 448 Kbps
Channel(s)                       : 6 channels
Channel positions                : Front: L C R, Side: L R, LFE
Sampling rate                    : 48.0 KHz
Bit depth                        : 16 bits
Compression mode                 : Lossy
Stream size                      : 282 MiB (21%)
Alignment                        : Aligned on interleaves
Interleave, duration             : 64 ms (1.92 video frames)
Interleave, preload duration     : 192 ms


Screenshots:
[img]http://leetleech.org/images/24268830192708135531.png[/img]
[img]http://leetleech.org/images/35933441473276287463.png[/img]
[img]http://leetleech.org/images/16430129177303648927.png[/img]
[img]http://leetleech.org/images/60140201356670306191.png[/img]
[img]http://leetleech.org/images/74868265898791398402.png[/img]

Note: N/A

Encoder: scumbag

Enjoy!

Respects to CaptainHomey, Cyanide, CM8, Rx, bobwhite, ELEKTRI4KA, Killerhz, XtremE, PA, YeFsTe and everyone in the struggle...